


$ DEMON TORRENTS $    ########   SERIOUS       UPLOADING!!!!!       ########

          

        

          [[[[ we value your response THE MOST ]]]]






....ALL THE FILES UPLOADED ARE NOT CREATED BY THE UPLOADER....








release info:




UPLOADER : DEMON~THE DARK MASTER(TDM)



info:

- 

General
Complete name : Thor.2011.Hindi.TSRip.x264.400mb-CRYME.0007-TeamTNT.mkv
Format : Matroska
File size : 383 MiB
Duration : 1h 49mn
Overall bit rate : 487 Kbps
Encoded date : UTC 2011-05-02 07:24:12
Writing application : mkvmerge v4.7.0 ('Just Like You Imagined') built on Apr 21 2011 01:13:14
Writing library : libebml v1.2.0 + libmatroska v1.1.0


Video
ID : 1
Format : AVC
Format/Info : Advanced Video Codec
Format profile : Main@L2.1
Format settings, CABAC : Yes
Format settings, ReFrames : 4 frames
Format settings, GOP : M=3, N=9
Muxing mode : Header stripping
Codec ID : V_MPEG4/ISO/AVC
Duration : 1h 49mn
Bit rate : 409 Kbps
Width : 704 pixels
Height : 288 pixels
Display aspect ratio : 2.40:1
Frame rate mode : Variable
Frame rate : 25.000 fps
Color space : YUV
Chroma subsampling : 4:2:0
Bit depth : 8 bits
Scan type : Progressive
Bits/(Pixel*Frame) : 0.081
Stream size : 315 MiB (82%)
Writing library : x264 core 112
Color primaries : BT.601-6 525, BT.1358 525, BT.1700 NTSC, SMPTE 170M
Transfer characteristics : BT.709-5, BT.1361
Matrix coefficients : BT.601-6 525, BT.1358 525, BT.1700 NTSC, SMPTE 170M


Audio
ID : 2
Format : MPEG Audio
Format version : Version 1
Format profile : Layer 3
Mode : Joint stereo
Mode extension : MS Stereo
Muxing mode : Header stripping
Codec ID : A_MPEG/L3
Codec ID/Hint : MP3
Duration : 1h 49mn
Bit rate mode : Variable
Bit rate : 76.3 Kbps
Minimum bit rate : 32.0 Kbps
Channel(s) : 2 channels
Sampling rate : 32.0 KHz
Compression mode : Lossy
Stream size : 60.0 MiB (16%)
Title : Hindi [CRYME.0007]
Writing library : LAME3.98r
Encoding settings : -m j -V 7 -q 0 -lowpass 14.5 --vbr-new -b 32
Language : Hindi









****check out our teams other releases****
          
http://thepiratebay.org/user/tdkdemon/
 
http://thepiratebay.org/user/demon_89/






##### we are desperate to hear from you[[[[]]]]we live through your comments#####





screen shots:

 
http://bollywoodreleases.info/images/90104975490985300275.jpg

 
http://bollywoodreleases.info/images/02035817452326924992.jpg

 
http://bollywoodreleases.info/images/65925844360971860525.jpg

 
http://bollywoodreleases.info/images/14506614318353424749.jpg